<svg width="400" height="60" viewBox="0 0 400 60" fill="none" xmlns="http://www.w3.org/2000/svg">
    <path
        d="M12.2102 59H0.960227L21.4432 0.81818H34.4545L54.9659 59H43.7159L28.1761 12.75H27.7216L12.2102 59ZM12.5795 36.1875H43.2614V44.6534H12.5795V36.1875ZM62.6293 59V0.81818H84.902C89.1065 0.81818 92.6009 1.48106 95.3849 2.80682C98.188 4.11364 100.281 5.90341 101.663 8.17614C103.065 10.4489 103.766 13.0246 103.766 15.9034C103.766 18.2708 103.311 20.2973 102.402 21.983C101.493 23.6496 100.271 25.0038 98.7372 26.0455C97.2031 27.0871 95.4891 27.8352 93.5952 28.2898V28.858C95.6596 28.9716 97.6387 29.6061 99.5327 30.7614C101.446 31.8977 103.008 33.5076 104.22 35.5909C105.432 37.6742 106.038 40.1932 106.038 43.1477C106.038 46.1591 105.309 48.8674 103.851 51.2727C102.393 53.6591 100.196 55.5436 97.2599 56.9261C94.3243 58.3087 90.6312 59 86.1804 59H62.6293ZM73.169 50.1932H84.5043C88.33 50.1932 91.0857 49.464 92.7713 48.0057C94.4759 46.5284 95.3281 44.6345 95.3281 42.3239C95.3281 40.6004 94.902 39.0473 94.0497 37.6648C93.1974 36.2633 91.9853 35.1648 90.4134 34.3693C88.8414 33.5549 86.9664 33.1477 84.7884 33.1477H73.169V50.1932ZM73.169 25.5625H83.5952C85.4134 25.5625 87.0516 25.2311 88.5099 24.5682C89.9683 23.8864 91.1141 22.9299 91.9474 21.6989C92.7997 20.4489 93.2259 18.9716 93.2259 17.267C93.2259 15.0133 92.4304 13.1572 90.8395 11.6989C89.2675 10.2405 86.9285 9.51136 83.8224 9.51136H73.169V25.5625ZM165.009 20.4489H154.384C154.08 18.7064 153.522 17.1629 152.707 15.8182C151.893 14.4545 150.88 13.2992 149.668 12.3523C148.455 11.4053 147.073 10.6951 145.52 10.2216C143.986 9.72917 142.329 9.48295 140.548 9.48295C137.385 9.48295 134.582 10.2784 132.139 11.8693C129.696 13.4413 127.783 15.7519 126.401 18.8011C125.018 21.8314 124.327 25.5341 124.327 29.9091C124.327 34.3598 125.018 38.1098 126.401 41.1591C127.802 44.1894 129.715 46.4811 132.139 48.0341C134.582 49.5682 137.376 50.3352 140.52 50.3352C142.262 50.3352 143.891 50.108 145.406 49.6534C146.94 49.1799 148.313 48.4886 149.526 47.5795C150.757 46.6705 151.789 45.553 152.622 44.2273C153.474 42.9015 154.062 41.3864 154.384 39.6818L165.009 39.7386C164.611 42.5038 163.749 45.0985 162.423 47.5227C161.116 49.947 159.402 52.0871 157.281 53.9432C155.16 55.7803 152.679 57.2197 149.838 58.2614C146.997 59.2841 143.844 59.7955 140.378 59.7955C135.264 59.7955 130.7 58.6117 126.685 56.2443C122.67 53.8769 119.507 50.4583 117.196 45.9886C114.885 41.5189 113.73 36.1591 113.73 29.9091C113.73 23.6402 114.895 18.2803 117.224 13.8295C119.554 9.35985 122.726 5.94129 126.741 3.57386C130.757 1.20644 135.302 0.0227251 140.378 0.0227251C143.616 0.0227251 146.628 0.47727 149.412 1.38636C152.196 2.29545 154.677 3.63068 156.855 5.39205C159.033 7.13447 160.823 9.27462 162.224 11.8125C163.645 14.3314 164.573 17.2102 165.009 20.4489Z"
        fill="black" />
    <path
        d="M192.516 59V0.81818H208.311V46.2727H231.834V59H192.516ZM229.675 13.5455V0.81818H280.243V13.5455H262.743V59H247.175V13.5455H229.675ZM308.574 59H286.188V0.81818H308.347C314.331 0.81818 319.502 1.98295 323.858 4.3125C328.233 6.6231 331.604 9.95644 333.972 14.3125C336.358 18.6496 337.551 23.8485 337.551 29.9091C337.551 35.9697 336.367 41.178 334 45.5341C331.633 49.8712 328.28 53.2045 323.943 55.5341C319.606 57.8447 314.483 59 308.574 59ZM301.983 45.5909H308.006C310.884 45.5909 313.337 45.1269 315.364 44.1989C317.409 43.2708 318.962 41.6705 320.023 39.3977C321.102 37.125 321.642 33.9621 321.642 29.9091C321.642 25.8561 321.093 22.6932 319.994 20.4205C318.915 18.1477 317.324 16.5473 315.222 15.6193C313.138 14.6913 310.581 14.2273 307.551 14.2273H301.983V45.5909ZM356.301 59H339.256L358.46 0.81818H380.051L399.256 59H382.21L369.483 16.8409H369.028L356.301 59ZM353.119 36.0455H385.165V47.8636H353.119V36.0455Z"
        fill="#4F46E5" />
</svg>